<?xml version="1.0" encoding="utf-8"?>
<!-- Generator: Adobe Illustrator 26.0.0, SVG Export Plug-In . SVG Version: 6.00 Build 0)  -->
<svg version="1.1" id="Layer_1" xmlns="http://www.w3.org/2000/svg" xmlns:xlink="http://www.w3.org/1999/xlink" x="0px" y="0px"
	 width="640px" height="480px" viewBox="0 0 640 480" style="enable-background:new 0 0 640 480;" xml:space="preserve">
<style type="text/css">
	.st0{fill-rule:evenodd;clip-rule:evenodd;fill:#7F3F00;}
</style>
<g>
	<g>
		<path class="st0" d="M322.9,148.3c0.7,0.6-0.1,0.7-0.2,1.3c-0.2,1.1,0.5,2.2-0.4,3.2c0.4,2,0.4,4.4,0.2,6.6c-0.4,3.2,0.3,7-1.1,10
			c-1-1.5-2.6-3.1-3.2-4.6c0.7-0.7,1.3,0.8,2-0.2c0.6-1.4-0.8-2.9-0.4-4.3c0.4-0.7,0.8,0.1,1.3-0.5c0.1-1.3-0.5-2.5-0.5-3.8
			c0.4-0.6,0.7,0,1.1-0.4c0.2-1.3-0.6-2.5-1.3-3.8C322.6,151.4,321.9,149.7,322.9,148.3z"/>
		<path class="st0" d="M287.9,187c1.2,0.8,1,2.5,1.6,3.8c0.7,1.4,2.1,3.1,3.2,4.6c3.2,4.5,7.6,9.3,12.5,14.7
			c1.7,1.8,3.6,3.7,5.2,5.2c2.1,1.9,4.8,3.3,6.3,5.2c1.5,2,1,5.3,0.9,7.7c-0.1,2.2,0.1,4.3-0.5,5.9c-1.9-0.4-4.3-3.5-5.9-4.8
			c-2.2-1.8-5.3-4.8-7.3-7.3c-0.6-0.8-1.6-1.4-2.5-2.5c-1-1.3-1.6-2.8-2.7-4.1c-3.8-4.6-8.3-9.2-10.4-13.9c-1.3-2.9-2.1-6.1-3.2-9.3
			c-1.1,1.5,0.8,3.5,1.6,5.5c0.5,1.3,0.5,3,1.1,4.3c1.6,3.6,5.4,8.1,9.1,12.7c5.6,6.8,11.6,15.5,20.2,20.5c0.5,4.1,0.1,8.2-0.2,12.3
			c-1.9-1.9-4.8-3.1-6.8-4.6c-5.5-4.3-9.3-10.3-13.8-15.2c-2.2-2.4-4.8-4.6-6.6-7.3c-1.2-1.8-2.2-3.8-3.4-5.5
			c-2.4-3.7-4.2-7.3-6.1-11.1c-0.4-0.9-1.1-1.8-1.4-2.9c-0.3-0.8-1.3-1.9-0.2-2.7c1.5-0.4,0.6,2.1,2.3,2.3c2.9-1.3,1.1-3.9,2.5-5.7
			c-0.2-1.1,0.1-2.1,0-3.2c1.3-0.8,2-1.7,2.1-2.9C286.3,187.6,287.9,188.6,287.9,187z"/>
		<path class="st0" d="M289.9,184.3c1,1.1,0.4,2.3,0.5,3.4c2.3,0.7,3.9-3.5,3.9-5c0.8-0.5,0.5,0.7,1.3,0.2c0.9-2.4,1.6-2.6,3.6-5
			c0.5,1.1,0.2,2.1,0.4,3.2c2.1,0.7,2.6-2.5,2.9-3.9c1.1-0.2,1.8-0.9,1.6-2c0.3-0.5,0.6-0.1,0.9,0.2c0.8-0.8,0-1.7,0.7-2.5
			c1.2,1.2,1.1,3.3,1.8,5c0.5,1.3,1.8,2.6,2.7,4.1c0.8,1.4,1.2,3.1,2,4.1c0.6,0.7,1.4,1,2,1.6c1.6,1.6,2.2,2.9,3.9,3.9
			c0.9,0.6,2,0.8,2.9,1.8c-1.2,4.4-1,8.7-2.3,13.1c-2.4-2.8-5.5-4.8-8.1-7.7c-0.9-1-1.4-2.2-2.2-3.2c-1-1.3-2.3-2.3-3.2-3.6
			c-0.5-0.8-0.7-1.6-1.3-2.3c-1-1.4-2.5-2.4-3.4-3.8c-1-1.4-1.2-3.2-2-4.5c0.2-0.7,0.2-1.4,0.4-2.1c-1.3,0.5-0.6,2.3-0.4,3.2
			c0.4,1.8,0.6,3.3,2.2,5c0.7,0.8,1.7,1.5,2.5,2.5c2.2,2.9,4.1,6.5,6.6,9.5c1.5,1.8,3.4,3.6,5,5c1.6,1.4,3.5,2.2,3.9,4.3
			c0.2,1.3-0.4,4.1-0.5,5.5c-0.1,2,0.2,3.7-0.4,5.4c-8.3-4.9-13.9-14.2-21.3-20.2C294.9,194.4,285.9,189.4,289.9,184.3z"/>
		<path class="st0" d="M324.9,149.9c1,1,0.1,2,0.5,3c0.4,0.1,0.8-0.1,1.3-0.2c0.4,1-1,1.9,0.4,2.9c-0.8,1.3-1.3,2.6-1.1,3.9
			c1.2,0.5,1.4-0.7,2.3-1.6c0.1,0.5,0.1,1.1,0.9,1.6c-0.3,1.6-1.5,3.2-0.2,4.8c0.7,0.6,1.3,0.3,2-0.5c0.1,0.7,0.6,1.8,1.4,1.1
			c0.7,1.9-0.4,4.6,1.3,5.9c-0.5,0.5-0.7,0.1-0.7,0.7c0.8,0.9,1.7,0.5,2.5-0.4c-2.5,6-6.5,12.1-12.7,18.1c-0.7-3.5,0-7-0.2-10.6
			c2.8-3,4.8-6.2,6.1-9.3c0.6-1.5,0.4-2.6,2-4.1c-1.6-0.4-1.4,1.5-1.8,2.1c-1.4,3-2.8,6.7-6.1,10c0.1-4.8-0.5-9.5,0.7-14.3
			c0-4.2,0-8.3,0-12.5C324,150,324.4,150.8,324.9,149.9z"/>
		<path class="st0" d="M277.2,198.8c1.2,1.6,1.6,3.8,2.5,5.7c1.8,3.9,4.2,8.1,6.8,12.2c1.3,1.9,2.4,4.1,3.8,5.9
			c1.7,2.2,3.9,4,5.7,6.1c3.4,4,6.6,8.1,10,11.8c1.1,1.2,3.3,3.2,5,4.3c1.9,1.2,4.7,2.1,5.6,3.4c1.1,1.5,0.4,4.7,0.4,6.4
			c-0.1,2.6,0.1,4.8-0.3,6.4c-2-1.8-4.4-3.1-6.8-5c-3.9-3.1-8.2-7.8-13.3-12.9c-2.2-2.2-4.8-4.2-6.6-6.6c-0.5-0.6-0.6-1.5-1.1-2.1
			c-1-1.5-2.5-2.8-3.6-4.3c-1.2-1.6-1.7-3.5-2.7-5.2c-0.9-1.5-2.1-2.8-2.9-4.3c-2-3.8-4-8.6-5.4-12.5c-1-0.7-1-1.4-1.8-2.1
			c1.4-0.5,2.9,1.5,4.3,0.7C277.9,204.1,277.5,201.4,277.2,198.8z"/>
		<path class="st0" d="M306.2,172.7c0.9,0.1,1.8,1.7,2.7,2.3c0.8-0.9,0.6-1.8,0.9-2.7c1.9-0.5,1.4-2.1,2.5-2.9
			c1.2,0.3,0.4,1.6,0.9,2.7c1.5,3.3,5.7,7.8,8.6,7.9c-0.6,3.9,0.4,7.8-1.2,11.6C312.5,188,309.3,179.3,306.2,172.7z"/>
		<path class="st0" d="M284.8,230.7c-0.9,1-1.2-0.5-2-0.9c-0.8-0.4-1.8-0.6-2.5-1.1c-2.1-1.4-4.4-4-6.3-5.9
			c-2.4-2.3-3.7-5.1-3.8-7.3c0.8-0.3,1.7,1.4,2.5,0.7c1.2-1.8,0-3.6-0.4-5.4c0.5-1,0.6-1.9,0.4-2.9c0.2-0.2,0.4-0.3,0.5-0.2
			C276.6,215.4,279.8,223,284.8,230.7z"/>
		<path class="st0" d="M317.6,164.8c1,2.1,2.6,4.2,4.5,6.3c-0.6,2.6,0.3,5.2-0.7,7.9c-3.4-0.9-7.8-5.6-7.7-9.1
			C316.6,169.1,314.8,166,317.6,164.8z"/>
		<path class="st0" d="M269,215.6c0.8-0.1,0.9,1.3,1.1,1.8C269.2,217.5,269.4,216.1,269,215.6z"/>
		<path class="st0" d="M337.5,170.3c1.1,0.1,0.4,1.2,0.7,1.8c0.5,0.7,1-0.5,1.4,0.4c-0.3,1-0.3,1.1,0.7,1.4
			c-0.2,1.1,0.1,2.3,0.5,3.4c1.2,0.9,2.4-1.1,3.6-0.4c-5.9,9.4-14.5,18.1-22.7,27.8c-0.9-2,0-4.3,0.3-6.8c0-0.3-0.2-0.6-0.2-0.9
			c0.1-0.8,0.6-1.6,0.7-2.5c0.1-1.4-0.6-2.8,0.4-3.9c4-5.2,8.1-8.9,10.7-14C334.6,174.8,335,172.4,337.5,170.3z"/>
		<path class="st0" d="M266.3,241.9c1.3,0.6,1.8,1.6,3,2.3c0.6,0.4,1.5,0.3,2.1,0.7c1.9,1.1,3.2,3.1,5,4.3c1.5,1,6.2,2.8,8.1,2
			c2.4,2.1,5,4.5,7.2,7.1c2.1,2.6,4.8,4.1,7.3,6.3c2,1.7,3.6,3.9,5.7,5.4c3.9,2.6,8.1,4.1,11.3,7c-0.3,4.7,0.4,9.4-0.2,14.1
			c-8.6-5.1-18.3-10.1-27-17c-3.2-2.5-6-5.4-9-8.2c-4.6-4.3-8-9.8-12.5-14.3c4.4,7.6,11,14.5,18.5,20.9c-6.5,0.1-13-5.2-19.5-10.2
			c0.2-1.2,2-0.1,2.9-1.1c0.3-1.3-1.4-2.5-0.9-3.8c-1.4-1.1-1.5-2.3-2.3-3.4c0.9-1.3-0.6-2.6,0-3.9c2.8,2.5,5.1-0.7,1.2-3
			c0-1.6-1.3-3.1-1.4-4.6C266,242.3,266.2,242.1,266.3,241.9z"/>
		<path class="st0" d="M320.3,220.8c-0.7-3.1,0.2-7.4,0.5-10.9c0.2-1.9,0.1-3,1.4-4.7c1-1.2,2.4-2.3,3.6-3.6
			c3.7-4.1,7.7-9.7,11.4-14c1.1-1.2,2.4-2.1,3.2-3.2c2.3-3,3.2-6.1,5.2-8.8c0.9,1.3,0.2,2.4,2,2.3c-0.6,2.1,0.9,1.9,1.1,3.9
			c1.1,0.5,2.1-1.1,3.2-1.8c-1.3,3.1-3.5,5.8-5.2,8.8c-1.4,2.6-2.4,5.4-3.9,7.9c-2.8,4.4-5.7,8.4-9.5,12.7
			C329.8,213.7,325,217.1,320.3,220.8z"/>
		<path class="st0" d="M360.5,179.8c0.4,1.5-1,3-2,4.5C358.7,182.7,360.1,181.2,360.5,179.8z"/>
		<path class="st0" d="M373.6,211.4c-3.3,2-6.1,6.8-9.3,11.1c-2.1,2.8-4.5,5.7-6.8,8.2c-2.8,3.2-6.2,6-9.3,9.3
			c-2.4,2.7-4.9,5.6-7.5,7.9c-1.3,1.2-2.6,2.4-3.9,3.6c-5.2,4.5-11.9,6.6-17.3,13.1c-0.3-5.1-0.1-10.1,0.2-15.2
			c1.8-2,5.9-6.7,8.2-8.6c3.7-3.2,8.3-5.4,12.2-8.6c3.5-3,7-6.1,10-9.3c1.1-1.1,1.9-2.5,3-3.4c1.8-1.4,4.1-2,5.9-3.4
			c2.6-2.1,4.6-5,7-7.3c2.2-2.1,4.6-3.8,5.5-6.6c-4.5,4.7-11.3,13.4-17.3,15.9c0.8-1.9,2-3.8,3.2-5.7c3.5-5.5,8.7-11.3,11.1-17.2
			c-1.7,0.9-1.6,2.8-2.5,4.3c-1.1,1.8-2.7,3.3-3.9,5c-1.4,2-3.5,4.7-5.2,7.3c-2.2,3.4-4.3,7.4-7.5,10.7c-3.4,3.6-9.3,8.8-14.1,12.4
			c-2.4,1.8-4.9,2.8-7.2,4.7c-2.8,2.3-5.2,5.4-8.2,7.9c-0.4-3.6,0.1-7.2,0-10.7c9.1-8.5,18.3-17.1,25.5-26.7c0.8-1,1.2-2.2,2-3
			c0.8-0.9,1.7-1.2,2.7-2c4.9-4,8.9-9.3,13.8-13.8c0-0.8,1.2-2.3,2.1-2.1c1.1,1-1.3,2.6,0.5,3c-0.5,1.2-1.6,2.4-0.4,3.6
			c1-0.2,2.1-2.1,2.7-2c1.2-0.6-0.5,2,1.3,2c-1,1.2-0.4,1.4,0.2,2c-0.6,1.4-2.3,2.9-1.8,4.3c1.6,0.4,2.1-2.1,4.1-2.3
			c-0.3,1.4-0.1,2.3,0.5,3.4c-0.6,1-1.3,1.9-0.7,2.9c-1,1.7-1.6,3.5-2,5.2c1.4,1,2.9-1.6,4.3-0.4c-0.2,0.7-0.8,1.3-0.9,2
			c1.1,1.3-1.1,2.4,0.4,3.2c-1.2,0.7-1.5,1.2-1.2,2.3c-0.9,1.1-2.2,2.3-2.3,3.4c1.1,1.3,2.1-0.5,3.2,0c-0.4,1.7-2.1,3.1-3.4,4.1
			c-2.7,2.2-6.1,4.1-9.1,5.6c-1.5,0.7-3.1,1.5-4.5,1.3C363.5,225.8,367.8,217.8,373.6,211.4z"/>
		<path class="st0" d="M373.8,223c0.2,1.4,1.2,1.9-0.5,3.4c-0.2,0.7,0.1,1.3-0.2,2c-1.4,1.7-1.7,2.3-2.7,3.8c0.9,0.7,1.8-1,2.7,0.2
			c-1.3,1.1-2.6,2-3.8,3.4c-2.8,3.3-7.2,7.6-11.1,11.5c-3.1,3.1-5.5,6.7-8.4,9.5c-4.3,4.1-9.6,7-14.1,10.6c-2.4,1.9-4.5,3.7-7,5.2
			c-3.4,2.1-6.7,4.2-9.7,6.8c-0.7-4.2,0-8.3,0-12.5c4-6.1,10.6-8.8,15.7-12.5c2-1.4,4-3.4,5.7-5c4.8-4.4,8.5-10.2,13.2-14
			c2.1-1.7,4.4-1.5,6.4-2.5c1-0.5,1.7-1.4,2.7-2c0.8-0.4,1.8-0.4,2.7-0.9C368.6,228.2,371.3,225.3,373.8,223z"/>
		<path class="st0" d="M369.6,242.4c-3.2,0.8-6.5,4.4-9.7,6.8c-0.9,0.7-2.3,1.6-3.4,1.3c5.9-5.9,10.6-10.8,15.5-16.7
			c-0.1,0.8,0.5,0.9,0.7,1.4c-1.2,1.4-1.5,2.9-2.5,4.3c0.6,0.9,2.1-0.6,2.1,0c1.2,1.4-2.6,2.7-1.2,4.1c-0.9,0.8-1.7,1.6-0.9,2.3
			c-0.8,0.5-1.5,0.9-2.3,1.6c-0.1,1,1.3,0.2,1.8,1.1c-0.8,1.3-1.8,2.6-1.8,3.9c-1.1,1.4-2.9,1.9-3.4,3.4c1,0.7,1.9-1.3,2.9-0.4
			c-1.1,0.7-0.7,1.3-0.5,1.6c-1.1,0.9-1.1,1.8-1.2,2.7c-0.5,0.8-1.1,0.6-1.6,1.3c-0.2,0.9,1.1,0.5,1.4,1.1c-1.2,1.3-0.6,2.5-2.3,3.8
			c-0.2,0.3,0.3,0.6,0.5,0.9c-0.9,1.6-2.7,3.1-4.1,3c0,1,1.5-0.1,2.1,1.1c-1.2,1-1.9,1.9-1.1,2.5c-1.8,1.3-2.5,3.7-4.8,4.5
			c-0.1,1,1.3-0.1,1.8,0.7c-0.7,1.8-1.5,4.3-3.9,4.7c-0.3,0.6,0.9,0.6,1.3,0.2c0.2,0.6-1.2,1.6-1.6,1.6c1,0.9-0.5,2.1-1.4,2.5
			c1.1,2-1.8,2.7-3.2,3.6c-0.5,0.6,1.3,0.1,0.7,0.7c-0.8,1-1.7,1.1-2.5,1.4c0.7,0.7,0.6,1.4-0.7,1.4c-0.4,0.7,0.7,0.5,0.9,0.9
			c-0.8,1-1.7,0.8-2.5,1.4c-0.6,0.7,1.1,0.5,0.5,0.9c-0.2,0.8-1.7,1.2-2.5,1.4c-0.2,0.3,0.5,0.6,0.2,0.9c-1.1,0.9-2.1,0.9-3.2,1.1
			c-0.3,1.1,1.8,0.3,1.4,1.1c-1,0.8-2,1.4-3,1.6c-0.9,0.4,0.5,0.7,0,1.1c-0.8,0.5-1.7,1.1-2.5,0.7c0,1.7-2.4,2.4-3.9,2.5
			c-0.7,0.4,0.1,0.8-0.2,1.3c-1.1,1-2.1,0-3.2,0.4c-0.6,0.4,0.5,0.8,0.2,1.3c-0.9,0.8-1.8,0.7-2.7,0.5c-0.3,0.4-0.1,0.8-0.5,1.3
			c-1.9-0.2-3.8,1.5-5.7,1.1c-1-1.3-0.3-2.5-0.2-3.8c2.3-1.6,5.9-1,8.6-1.8c1.2-0.4,2.4-1.1,3.4-1.6c0.7-0.3,2.6-0.4,2.1-1.8
			c-3.6,2.8-8.5,3.3-12.7,3.8c1.5-2.7,4.5-2.1,6.8-2.9c2.3-0.7,5.6-2.9,8.2-5c3.7-0.9,5.8-5.9,9.8-7c-0.5-0.8-1.1,0.3-1.6-0.2
			c-4.7,4.2-8.7,7.4-13.6,10.4c-1.6,0.1-2.7,1-4.3,1.4c-2.2,0.6-4.5,0.5-7,3.4c-0.6-2.3-0.5-4.7,0.5-7c6-2.6,12-5.1,18.1-10.6
			c2.4-0.5,5.4,0,7.9-1.4c1.3-0.8,2.1-2.2,3.8-2.7c-1.1-0.7-1.5,0.7-2.1,1.1c-2.5,1.5-5.4,2.7-7.9,1.8c6.4-5.5,12.8-11.1,19.1-17
			c-2.8,0.7-5,4.5-7.9,6.8c-0.8,0.6-1.9,0.9-2.7,1.6c-4.4,3.6-8,8.4-12.5,11.1c-3.5,2.1-7.8,4.9-11.6,6.6c-1.6,0.7-2.8,0.7-4.5,2.3
			c-1.3-2.3,0.4-4.5-0.4-6.8c0.5-1.3,0.3-2.6,0.4-3.9c0.5-0.6,1.1-1.4,2.1-2.1c3.5-2.4,8.6-4.2,12.5-6.8c3.4-2.2,7-4.4,10.2-7
			c3.8-3.1,7.6-5.7,11.6-5.6c1.9-1.2,3.8-2.4,5.7-4.7c-1.9,0.2-2.7,2.2-4.1,3c-1.1,0.7-2.3,0.6-3.4,0.9c-1.2,0.3-2.3,1.2-3.4,0.9
			c2.6-2,3.4-4.7,5.4-6.4c2.7-2.5,7.1-2.3,9.3-5.4c-2.6,0.8-5.1,2.8-7.7,3.8c0.7-2.1,2.9-3.7,4.5-5.6c2-2.4,3.6-5,6.3-6.3
			c-5.3,2.6-9.7,9.1-13.4,14.1c-1.8,2.5-4.3,5.1-6.6,7c-1.3,1.1-2.5,1.8-4.3,3.2c-4.2,3.5-8.7,6.5-13.2,9c-3.7,2.1-8,3.3-11.3,6.3
			c0.3-3.8-2.4-7.2,1.6-10.9c1.7-1.6,4.4-2.7,6.6-4.5c2.4-1.9,4.9-2.8,7.9-5.4c2.8-2.5,6.3-4.3,9.1-6.6c4.1-3.3,8.1-6.8,11.3-10.6
			c2.7,0.6,5-2.9,8-5.2C366,244.7,368.7,244.4,369.6,242.4z"/>
		<path class="st0" d="M321.6,191.2c0.2,9.1-2.1,18.1-2.3,27.4c-0.1,4.7-0.4,9.3-0.3,14c0.2,9.2-0.7,18.4-0.5,27.7
			c0.1,4.7-0.5,9.1-0.5,13.8c-0.1,9.2,1,18.6-0.5,27.7c0.6,5.1,0.8,10.1,0.9,15.2c0.1,2.6-0.3,5.1-0.2,7.7c0.1,2.5,1.4,5,0.4,7.5
			c-2.5-4.6-1.3-9.7-1.1-14.7c0.1-2.4-0.4-4.8-0.5-7.3c-0.1-1.2,0-2.4,0-3.6c0-1.2-0.4-2.4-0.4-3.6c0-0.9,0.5-1.8,0.5-2.7
			c0.1-0.9-0.2-1.8-0.2-2.7c0-3.5,0.5-7.1,0.3-10.7c-0.1-2.7-1.1-5.7,0.3-8.6c-0.7-3.5-0.5-7.4-0.2-10.9c0.3-3.7-0.1-7.3,0.2-10.9
			c0.1-1.9,0.5-3.7,0.5-5.5C318.4,231.4,318.3,211.1,321.6,191.2z"/>
		<path class="st0" d="M322.9,146.5c0.8,0.8,0.9,1.7,1.4,2.5c0.4,0.1,0.8-0.1,1.3-0.5c1,1.1,0.1,2.3,0.5,3.4
			c0.4,0.1,0.7-0.1,1.1-0.4c1,1.3-0.8,2.5,0.9,3.8c-0.6,1-1,1.9-1.4,2.9c0.8,0.1,1.7-1.9,2.5-1.8c1.2,0.8-0.5,1.6,0.9,2.3
			c-0.6,1.7-1.3,3.5-0.5,5.2c0.7,0.1,1.4-1.3,2.1-1.8c0.9,0.6,0.6,1.2,0.4,1.8c0.4,0.5,0.7-0.3,1.1,0c0.2,1.3,0.7,2.6,0.7,3.9
			c0,1-0.8,2.3,0.4,3.2c1.4-0.4,2.7-1.4,4.1-2.3c0.7,0.8,0.3,1.6,0.5,2.3c0.4,0.1,0.7,0,1.1-0.4c0.5,1.3,0,1.8,1.6,2.3
			c-0.6,0.5-0.1,1.1-0.9,1.6c0.8,0.5,0.6,1,0.7,1.4c1.6,0.9,3.4-0.6,4.5-2c1.1,0.8,0.9,1.7,1.1,2.5c1-0.2,1.9,1.1,1.3,2
			c0.4,0.7,0.8-0.1,1.3,0.5c-0.8,0.5,0.3,1.1-0.2,1.6c1.3,0.2,1.9-1.1,3-2.3c1.1,1.8,1.4,2.7,2.2,4.6c1-0.3,2.7-2.1,2.7-3
			c2.2-0.2,2.4-2.3,3.6-3.9c1.5,0.5,1.7,2.5,1.4,3.6c0.4,0.7,0.8-0.1,1.3,0.5c-0.3,0.9-0.7,1.8,0.5,2.7c-0.3,1-1,2,0.2,3
			c-0.6,0.5-0.7,1.1-0.5,1.6c1.1-0.3,2.1-1.6,3.2-1.4c0.4,0.7,0.1,1.3-0.5,2c0.4,0.7,0.7,0.2,1.1,0.7c0.1,1-1.1,2,0.2,3
			c-0.7,1-1.2,2-0.9,3c1.1-1.1,2.3-2.5,3.4-2.7c0.4,0.8-0.3,1.7-0.4,2.5c0.4,0.4,0.7-0.3,1.1,0.4c0,0.5-0.3,1.1-0.5,1.6
			c0.3,0,0.6,0.2,0.9,0.5c-0.2,1.2-1.7,2.4-1.8,3.6c1.7-0.5,3.3-2.9,5-1.4c-1.5,0.7-1.7,1.9-0.2,2.7c-1.2,2-0.3,3.9-2,5.9
			c0.2,0.2,0.5,0.5,0.7,0.7c-0.9,0.8-0.8,0.7-1.6,1.6c1.6-0.3,3.2-1,4.8-0.5c-0.7,1.3-2.2,2.7-0.7,3.6c-0.5,0.7-1.2,1.3-0.2,2
			c-1.6,2-1.8,4.5-3.7,5.9c1.3,0.2,2.5-0.8,3.8-0.2c0.4,0.8-0.4,1.7-0.7,2.5c0.4,0.7,0.8,0.2,1.3,0.9c0,1-2.3,1.9-1.1,2.9
			c-1,1-1.9,2-1.2,3c-0.5,0.4-1,0.5-1.4,0.7c0.1,1.1,1.5-0.1,2.1,0.7c-0.3,0.7-0.4,1.4-1.1,2.1c0,0.7,0.4,0.2,0.9,0.9
			c-1.4,1.3-1,2.6-2.1,3.9c0.7,0.5,1.3,0.3,2,1.2c-1.2,1.3-1.9,2.5-1.2,3.8c-1.1,0.3-1.9,1.5-1.3,2.3c-0.6,0.3-1.2,0.7-1.8,1.4
			c0.6,0.8,1.6,0.5,1.6,1.2c-1.6,0.7-0.9,2.1-2.3,2.7c-0.2,0.3,0.3,0.6,0.5,0.9c-0.6,0.6-1.2,1.2-1.8,1.8c-0.3,0.8,1.1,0.6,0.9,1.3
			c-0.9,0.7-1.3,1.3-0.2,2c-0.6,0.5-2.1,0.9-0.7,1.8c-1,1-1.5,1.1-2.1,2.1c0.4,0.4,0.8,0.2,1.3,0.9c-0.8,0.8-1.4,1.6-0.9,2.3
			c-1.5,0.4-1.3,1.7-0.9,2.7c-0.7,0.2-1.4,1.7-2.5,2.5c-0.4,0.4,0.6,0.7,0.7,1.1c-0.9,0.9-1.8,1.8-1.2,2.7c-1.6,1.6-1.9,3-3.9,3.9
			c-0.3,0.8,0.8,0.4,1.1,1.1c-2.3,3.4-2.2,6.3-5.4,9c-0.3,0.4,0.5,0.7,0.4,1.1c-1.2,1-1.6,2.2-3.4,2.7c-0.2,0.3,0.3,0.2,0.5,0.5
			c-0.8,0.8-1.5,1.1-2.3,1.6c0.5,0.9-0.1,1.1-0.9,1.6c-0.4,0.8,0.5,0.6,0.7,1.4c-0.9,0-1.8,0.7-2.7,0.9c0.8,1.3-2.2,2.3-1.8,3.2
			c-0.7,0.7-1.4,0.6-2.1,1.1c-0.1,0.4,0,0.7,0.4,1.1c-0.9,0.5-3.3,1.7-2.7,3c-1,0.3-2,0.6-3,0.9c-0.4,2.3-4.2,1.2-4.6,3.9
			c-2.1-0.3-3.2,2.5-5.4,2.2c-0.6,0.4,0,0.7,0,1.1c-2.4-0.2-4.9,1.9-7.3,1.6c-1,3.8,0.4,7.5-0.2,11.3c0.9,1.4,0.4,2.7,1.3,4.1
			c-0.1,1.2-1.2,2.6-2.5,2.9c-3.2-4-1-8-2.3-12c-1,0.1-1.9-0.2-3-0.2c-0.9,0-2,0.5-2.9,0.4c-1.7-0.3-3.3-2.2-5.2-1.2
			c0.2-1.9-1.9-2.2-3.2-1.8c0-1.7-1.6-2.5-3-2c-0.4-0.5,0.4-1,0-1.4c-2.3-1-2.4-2.2-4.7-3.6c0.5-0.6,1.1-0.4,1.6-1.3
			c-1.7-1-3-2.1-5-2.5c0.1-0.4,0.5-0.8,0.2-1.3c-0.5-0.2-1.1-0.5-1.6-0.2c-0.1-1.2-1-2.5-2.3-2.3c0-1.8-1.7-1.2-2.7-2
			c0-0.9,0.9-0.6,1.4-1.4c-1.5-1-3-1.8-4.5-2.7c0.1-0.4,0.2-0.7,0.7-1.1c-0.9-1.5-3.7-1.3-2-3c-0.9-1.1-1.8-1.2-2.7-2.3
			c0.6-1,1.2,0.1,1.8-0.4c-0.3-1.9-3.4-2.1-4.8-2.7c0.1-1,1.7-0.7,1.4-1.8c-0.7-0.3-1.4-0.6-2.1-1.4c0.2-0.2,0.5-0.5,0.7-0.7
			c-0.8-0.8-1.6-1.5-2.3-2.3c0-0.8,0.9-0.2,1.4-1.1c-0.8-1-1.7-0.8-2.5-1.8c0.8-0.4,0.2-0.7,0.4-1.1c-0.6-0.8-1.2-0.2-1.8-1.1
			c0.3-0.4-0.2-0.8,0.5-1.3c-1-1.1-2.2-2.3-0.9-3.4c-0.2-1-1.3-0.4-1.4-1.4c0.5-0.8,1.1-0.2,1.6-0.5c-0.1-0.9-1.7-1.8-2.3-2.7
			c0.9-1-0.5-1.9-1.1-2.9c1-1.6-1.3-3.1-0.7-4.7c1.3-0.3,2.5,1,3.8,0.2c0.3-0.9-0.9-1.4-1.6-2c0.4-0.3,0.4-0.6,0.5-0.9
			c-2.3-1-1.3-3.3-3-4.8c0.4-0.7,0.7-0.2,1.1-0.7c0.3-0.7-0.8-1.4-1.4-2.1c0.8-1.8,2.9-0.8,4.3,0c0.7-1.2-0.8-1.6-1.3-2.3
			c-1.1-1.7-1.4-3.8-2.5-5.4c1.8-0.6,0-1.8-0.4-2.5c1.3-0.9,2.6-0.8,3.9-0.7c1.4-1.3-0.9-2.5-1.6-3.8c0.5-0.4,0.7-0.7,0.7-1.1
			c-1.2-1.1-0.7-2.1-1.8-3.2c0.4-0.7,0.8-0.3,1.3-0.5c-0.1-0.9-0.7-1.8-1.3-2.7c0.4-0.7,0.8,0.1,1.3-0.5c0.3-0.6-0.2-1.2-0.7-1.8
			c1.1-1.3,2.3,0.5,3.4,0.2c0.4-1.4-1.1-2.9-1.4-4.3c1.9-0.6,0.6-2.4-0.4-3.6c1.5-0.6,1.1-2.9-0.2-4.5c1.2-1.8,3.1,2.3,3.8-0.2
			c0.9,0.7,0.7,1.4,1.1,2.1c0.9-1.2,0-3.8-0.9-5.5c1.8-0.9,0.9-2.8,0-4.3c1.6-1.5,3.2-0.8,4.8,0.5c1.1-1.3,1-2.6,0-3.9
			c1.5-1.5-0.8-4,1.1-6.1c1,1.6,1.9,1,2.9,1.1c0.7,0.7,0.1,2,1.4,2.1c0.8-1.6,1.2-3.1,0-4.7c2-0.6,1.5-3.5,1.2-5.2
			c0.5-0.4,1.1,0.4,1.6,0.2c1.1-1.3,1.2-2.5,2-3.8c0.4,0.5,0.7,0.7,1.1,0.7c1.4-1.6,1.7-3.2,2.7-4.8c1.3,1.5,1.2,3,1.6,4.5
			c2.2-0.4,1.9-3.8,2.9-5.4c0.2,0.2,0.5,0.5,0.7,0.7c1.1-0.9,0.6-1.8,0.5-2.7c0.5-0.8,1,0.6,1.4,0.4c1.2-1.2,1.5-3.2,2.7-3.8
			c0.7,1.4,0.2,2.9,0.7,4.3c1.3-0.6,1.1-2.7,1.4-3.9c0.4-0.6,0.7,0,1.1,0c0.5-1,0.5-2,0.5-3c0.4-0.5,0.7,0.3,1.1,0
			c0.6-0.9,0-1.8,0.9-2.7c1.2,0.6,1.6,1.9,3,3c0.5-0.9,1.1-1.8,1.2-2.7c0.3-0.5,0.6,0.1,0.9-0.2c0.8-2.2,2.4-2.4,3.4-4.8
			c1.1,0.9,0.3,1.8,0.5,2.7c0.8-1.3,0.2-2.6,1.1-3.9c0.3,0,0.6,0.4,0.9,0.2c0.7-0.8-0.1-1.7,1.1-2.5c0.6,0.7,0.7,1.3,1.6,2
			c0.5-1.7-0.3-3.5-0.5-5.2c0.4-0.3,0.8,0.1,1.3-0.2c0-1.2,0.1-2.4-0.4-3.6c0.4-0.7,0.8-0.3,1.3-0.5c-1-1.4-1.6-2.7-1.3-4.1
			c0.5-0.8,1.1,0.2,1.6,0.2C321.6,149.2,321.2,147.2,322.9,146.5z M320.4,151.9c0.7,1.3,1.5,2.5,1.3,3.8c-0.4,0.4-0.7-0.3-1.1,0.4
			c0,1.3,0.6,2.5,0.5,3.8c-0.4,0.7-0.8-0.1-1.3,0.5c-0.5,1.4,0.9,2.9,0.4,4.3c-0.7,1-1.3-0.5-2,0.2c0.7,1.5,2.2,3.1,3.2,4.6
			c1.3-3.1,0.7-6.8,1.1-10c0.3-2.2,0.2-4.6-0.2-6.6c0.9-1,0.2-2.1,0.4-3.2c0.1-0.5,0.8-0.6,0.2-1.3
			C321.9,149.7,322.6,151.4,320.4,151.9z M285.6,188.6c-0.1,1.2-0.9,2.1-2.1,2.9c0.1,1.1-0.2,2.1,0,3.2c-1.4,1.8,0.4,4.5-2.5,5.7
			c-1.7-0.2-0.8-2.7-2.3-2.3c-1.2,0.8-0.1,1.9,0.2,2.7c0.4,1.1,1,2,1.4,2.9c1.9,3.7,3.7,7.3,6.1,11.1c1.2,1.8,2.2,3.8,3.4,5.5
			c1.8,2.7,4.4,4.9,6.6,7.3c4.5,4.9,8.3,10.9,13.8,15.2c2,1.5,4.9,2.7,6.8,4.6c0.3-4.1,0.7-8.2,0.2-12.3c-8.7-5-14.7-13.7-20.2-20.5
			c-3.8-4.6-7.5-9-9.1-12.7c-0.6-1.3-0.6-3-1.1-4.3c-0.8-2-2.8-4-1.6-5.5c1.1,3.2,2,6.4,3.2,9.3c2.1,4.7,6.5,9.3,10.4,13.9
			c1.1,1.3,1.7,2.9,2.7,4.1c0.9,1.1,1.9,1.7,2.5,2.5c2,2.5,5.1,5.6,7.3,7.3c1.7,1.3,4,4.4,5.9,4.8c0.6-1.6,0.4-3.7,0.5-5.9
			c0.1-2.4,0.6-5.7-0.9-7.7c-1.5-1.9-4.2-3.3-6.3-5.2c-1.6-1.5-3.5-3.3-5.2-5.2c-4.9-5.4-9.3-10.2-12.5-14.7
			c-1.1-1.6-2.5-3.3-3.2-4.6c-0.7-1.3-0.4-2.9-1.6-3.8C287.9,188.6,286.3,187.6,285.6,188.6z M296.5,199.5c7.4,6,13,15.3,21.3,20.2
			c0.5-1.7,0.2-3.4,0.4-5.4c0.1-1.5,0.8-4.3,0.5-5.5c-0.4-2.1-2.3-2.9-3.9-4.3c-1.7-1.4-3.5-3.2-5-5c-2.5-3-4.5-6.6-6.6-9.5
			c-0.8-1-1.8-1.7-2.5-2.5c-1.5-1.7-1.8-3.2-2.2-5c-0.2-0.9-0.9-2.7,0.4-3.2c-0.1,0.7-0.1,1.4-0.4,2.1c0.8,1.3,1,3,2,4.5
			c0.9,1.3,2.4,2.3,3.4,3.8c0.5,0.7,0.7,1.6,1.3,2.3c0.9,1.3,2.2,2.3,3.2,3.6c0.8,1,1.3,2.2,2.2,3.2c2.5,2.9,5.7,4.9,8.1,7.7
			c1.4-4.4,1.1-8.7,2.3-13.1c-0.9-0.9-2-1.2-2.9-1.8c-1.7-1-2.4-2.4-3.9-3.9c-0.6-0.6-1.4-0.9-2-1.6c-0.8-1-1.2-2.7-2-4.1
			c-0.8-1.5-2.2-2.9-2.7-4.1c-0.7-1.7-0.6-3.8-1.8-5c-0.8,0.8,0.1,1.7-0.7,2.5c-0.3-0.3-0.6-0.6-0.9-0.2c0.2,1-0.5,1.8-1.6,2
			c-0.2,1.4-0.7,4.6-2.9,3.9c-0.1-1.1,0.2-2.1-0.4-3.2c-2,2.4-2.6,2.7-3.6,5c-0.8,0.5-0.5-0.7-1.3-0.2c0,1.5-1.6,5.7-3.9,5
			c-0.2-1.1,0.5-2.3-0.5-3.4C285.9,189.4,294.9,194.4,296.5,199.5z M323.5,150.6c0,4.2,0,8.3,0,12.5c-1.2,4.8-0.6,9.5-0.7,14.3
			c3.2-3.3,4.6-7.1,6.1-10c0.3-0.7,0.2-2.6,1.8-2.1c-1.5,1.5-1.3,2.6-2,4.1c-1.3,3.1-3.2,6.3-6.1,9.3c0.2,3.5-0.5,7,0.2,10.6
			c6.1-6,10.2-12.1,12.7-18.1c-0.8,0.8-1.7,1.2-2.5,0.4c0.1-0.7,0.2-0.2,0.7-0.7c-1.7-1.3-0.5-4-1.3-5.9c-0.9,0.7-1.3-0.4-1.4-1.1
			c-0.7,0.8-1.3,1.2-2,0.5c-1.4-1.6-0.2-3.2,0.2-4.8c-0.8-0.5-0.8-1.1-0.9-1.6c-0.9,0.9-1.2,2.1-2.3,1.6c-0.3-1.3,0.3-2.6,1.1-3.9
			c-1.4-1,0.1-1.9-0.4-2.9c-0.4,0.1-0.8,0.2-1.3,0.2c-0.4-1,0.5-2-0.5-3C324.4,150.8,324,150,323.5,150.6z M276.9,206.7
			c-1.4,0.8-2.9-1.2-4.3-0.7c0.8,0.7,0.8,1.4,1.8,2.1c1.3,3.9,3.3,8.7,5.4,12.5c0.8,1.5,1.9,2.7,2.9,4.3c1,1.7,1.5,3.6,2.7,5.2
			c1.1,1.5,2.6,2.8,3.6,4.3c0.4,0.7,0.6,1.5,1.1,2.1c1.8,2.4,4.4,4.4,6.6,6.6c5.1,5,9.4,9.7,13.3,12.9c2.4,1.9,4.9,3.2,6.8,5
			c0.4-1.7,0.3-3.8,0.3-6.4c0-1.8,0.7-4.9-0.4-6.4c-0.9-1.2-3.7-2.2-5.6-3.4c-1.7-1.1-3.9-3.1-5-4.3c-3.5-3.7-6.6-7.8-10-11.8
			c-1.8-2.1-4-3.9-5.7-6.1c-1.4-1.8-2.5-4-3.8-5.9c-2.7-4-5.1-8.2-6.8-12.2c-0.9-2-1.3-4.1-2.5-5.7
			C277.5,201.4,277.9,204.1,276.9,206.7z M320.5,191.6c1.6-3.9,0.6-7.8,1.2-11.6c-2.9-0.1-7.1-4.5-8.6-7.9c-0.5-1.1,0.3-2.4-0.9-2.7
			c-1.1,0.7-0.6,2.4-2.5,2.9c-0.3,0.9-0.1,1.8-0.9,2.7c-0.9-0.7-1.8-2.3-2.7-2.3C309.3,179.3,312.5,188,320.5,191.6z M273.3,207.8
			c-0.2-0.1-0.4-0.1-0.5,0.2c0.2,1,0.2,1.9-0.4,2.9c0.4,1.8,1.6,3.6,0.4,5.4c-0.8,0.7-1.7-1-2.5-0.7c0.1,2.3,1.4,5,3.8,7.3
			c1.9,1.9,4.2,4.5,6.3,5.9c0.7,0.5,1.7,0.6,2.5,1.1c0.7,0.4,1.1,1.9,2,0.9C279.8,223,276.6,215.4,273.3,207.8z M313.7,169.8
			c-0.1,3.5,4.3,8.2,7.7,9.1c1-2.6,0.1-5.2,0.7-7.9c-1.9-2.1-3.5-4.2-4.5-6.3C314.8,166,316.6,169.1,313.7,169.8z M270.1,217.4
			c-0.1-0.5-0.3-1.9-1.1-1.8C269.4,216.1,269.2,217.5,270.1,217.4z M269,218.5c0.3,1.3,1.4,2.6,0,3.9c1.2,1.4,1.1,2.9,1.1,4.3
			c-0.8,0.4-1.7-0.4-2.5,0c0.9,1.2-0.3,2-0.9,2.3c0,0.8,1.2,1.5,1.3,2.3c-0.5,0.6-1.3-0.1-1.3,0.9c0.7,1.4,1.9,2.9,1.4,4.3
			c1.3,1.1,1.4,1.8,0.9,2.7c-0.8,1.4-2.2,0.6-3.2,1.1c1.8,2.8,4.8,3.3,6.4,4.3c1.8,1.1,3.1,3,4.8,4.1c2.1,1.3,4.9,2.2,7,1.6
			c-6.8-7.1-11.3-14.2-14.9-21.3c4.4,6.2,8.4,12.8,14,18.9c2.4,2.6,5.2,4.7,7.7,7.3c2.1,2.2,3.9,4.5,6.1,6.4
			c6.2,5.4,12.9,10.5,19.2,13.4c0.3-4.2,0.6-8.3,0.3-12.5c-11.3-9.2-22.9-19.3-31-30.9c-1.7,0.6-2.8-0.8-4.1-1.6
			c-0.7-0.4-1.5-0.6-2.1-1.1c-1.4-1-2.7-3.1-4.3-4.6c-1.3-1.3-2.9-2.2-3.6-3.2c-0.7-0.9-0.7-3.4-1.6-3
			C269.5,218.4,269.2,218.2,269,218.5z M333.7,176.6c-2.6,5.1-6.7,8.8-10.7,14c-0.9,1.2-0.2,2.5-0.4,3.9c-0.1,0.9-0.6,1.7-0.7,2.5
			c0,0.2,0.2,0.6,0.2,0.9c-0.3,2.5-1.3,4.8-0.3,6.8c8.2-9.6,16.8-18.3,22.7-27.8c-1.2-0.7-2.4,1.3-3.6,0.4c-0.4-1.1-0.7-2.3-0.5-3.4
			c-1.1-0.3-1-0.4-0.7-1.4c-0.5-0.9-1,0.4-1.4-0.4c-0.3-0.6,0.4-1.7-0.7-1.8C335,172.4,334.6,174.8,333.7,176.6z M265.8,242.5
			c0.1,1.6,1.5,3.1,1.4,4.6c3.9,2.3,1.6,5.6-1.2,3c-0.6,1.3,1,2.6,0,3.9c0.9,1.1,0.9,2.3,2.3,3.4c-0.5,1.3,1.2,2.5,0.9,3.8
			c-0.8,1-2.6-0.1-2.9,1.1c6.5,5,13,10.2,19.5,10.2c-7.5-6.4-14-13.3-18.5-20.9c4.6,4.5,7.9,10,12.5,14.3c3,2.8,5.8,5.7,9,8.2
			c8.7,6.8,18.4,11.9,27,17c0.6-4.7-0.2-9.4,0.2-14.1c-3.1-2.9-7.4-4.4-11.3-7c-2.1-1.4-3.7-3.6-5.7-5.4c-2.5-2.2-5.2-3.7-7.3-6.3
			c-2.2-2.6-4.8-5-7.2-7.1c-1.8,0.9-6.6-1-8.1-2c-1.8-1.2-3.1-3.2-5-4.3c-0.7-0.4-1.5-0.3-2.1-0.7c-1.2-0.7-1.7-1.7-3-2.3
			C266.2,242.1,266,242.3,265.8,242.5z M318.1,251c0,1.9-0.4,3.6-0.5,5.5c-0.2,3.6,0.2,7.2-0.2,10.9c-0.3,3.6-0.6,7.4,0.2,10.9
			c-1.5,2.9-0.5,5.9-0.3,8.6c0.2,3.7-0.3,7.3-0.3,10.7c0,0.9,0.2,1.8,0.2,2.7c-0.1,0.9-0.5,1.8-0.5,2.7c0,1.1,0.3,2.4,0.4,3.6
			c0,1.2,0,2.4,0,3.6c0.1,2.5,0.7,4.9,0.5,7.3c-0.2,4.9-1.4,10.1,1.1,14.7c1.1-2.5-0.2-5-0.4-7.5c-0.1-2.6,0.2-5.1,0.2-7.7
			c-0.1-5.1-0.3-10.1-0.9-15.2c1.5-9.1,0.4-18.5,0.5-27.7c0.1-4.6,0.6-9.1,0.5-13.8c-0.2-9.3,0.7-18.6,0.5-27.7
			c-0.1-4.7,0.3-9.3,0.3-14c0.2-9.3,2.5-18.3,2.3-27.4C318.3,211.1,318.4,231.4,318.1,251z M348.2,187.8c-1.1,2-1.8,4.1-2.9,6.1
			c-5.4,10.4-14.9,20.9-25.4,28.3c-0.4,3.2-0.1,6.8-0.2,9.8c0,1-0.6,2.5,0.5,3c2.2-2.9,4.6-4.6,7.1-6.8c7.1-6.3,13.2-13.1,18.4-20.2
			c2.6-3.6,4.2-7.9,5.9-11.6c0.9-1.9,2.1-3.8,2.9-5.7c0.4-0.9,0.6-2,1.1-2.9c0.4-0.7,1-2.1,2-2.3c-3.2,6.4-6,12.9-8.9,19.3
			c6.3-4.7,12.3-12.1,17-17c-1-1.2-1.9,1.9-2.9,1.1c-0.5-1.7-0.3-3.5,0.2-5.2c-0.6-0.7-1.1-1.2-0.5-2.3c0-0.8-0.8-0.2-1.1-0.7
			c-0.4-0.6,0.3-2.1-0.4-2.9c-2.2,2.2-4.7,5.7-7.3,6.3c-1.2-0.9,0.1-2.5-1.4-2.9C350.5,182.8,349.4,185.5,348.2,187.8z M333.4,209.5
			c3.8-4.3,6.7-8.3,9.5-12.7c1.6-2.5,2.5-5.3,3.9-7.9c1.7-3,3.8-5.7,5.2-8.8c-1.1,0.7-2.1,2.3-3.2,1.8c-0.2-2-1.7-1.9-1.1-3.9
			c-1.8,0.1-1.1-1.1-2-2.3c-2,2.7-2.8,5.8-5.2,8.8c-0.9,1.1-2.2,2-3.2,3.2c-3.8,4.3-7.7,9.8-11.4,14c-1.2,1.3-2.6,2.3-3.6,3.6
			c-1.3,1.7-1.2,2.8-1.4,4.7c-0.4,3.5-1.3,7.8-0.5,10.9C325,217.1,329.8,213.7,333.4,209.5z M275.3,285.9c0.3,0.4,0.9,0.7,1.1,1.1
			c0.2,0.4-0.2,0.8,0.2,1.3c0.8,0.8,2,1,2.7,2c0.5,0.8,0.3,1.9,0.4,2.1c0.5,1.7,1.4,2.6,2.9,3.9c0.5,0.7,0,1.3,0.5,2
			c1.3,0.6,2.5,1.6,3.8,2.3c0.5,0.5-0.9,1.1-0.2,1.6c1.4,1.6,4.8,3.3,5.6,5.2c2.1,0.5,3,2.1,5,3.2c-0.6,0.9-1.2,0-1.8,1.1
			c3.6,3.8,7.5,5,10.2,7.7c2,0,3.2,1.4,5,1.4c1.8,0.1,3.6-0.8,5.4-0.4c0.4-1,0.5-2,0.2-3c-5.6,0.4-11.2-4.4-16.8-5
			c0.8-1,2.4,0.6,2.7-0.5c-1.7-1.4-4.3-2.3-5.4-3.6c2.8,0,4.8,2.9,7.3,4.5c1.5,0.9,4.6,2,6.1,2.5c2.6,0.9,4.1,2.1,6.3,0.5
			c-0.3-1.7-1.2-2.8-2.7-3.8c-3.1-2-6.8-3-10.6-4.5c-2.1-0.8-4.6-1.6-6.6-2.7c-2.1-1.1-4-2.9-6.1-4.3c-2-1.4-4.3-2.6-6.1-3.9
			c-1.5-1.1-3.8-2.6-4.1-4.8c2.7,3.1,5,4.1,7.7,5.9c2,1.3,3.7,2.8,5.4,3.9c0.7,0.5,1.7,1.3,2.5,1.8c3.8,2.3,8.6,2.9,12.7,4.8
			c0.4,0.2,0.5,0.7,0.9,0.9c2.1,1.2,4.7,1.6,6.4,3.6c0.1-1.2,0.4-2.6,0.4-3.9c-0.1-3.8-1.4-4.7-5.2-6.6c-1.5-0.8-3.3-1.3-4.5-2
			c-2.4-1.4-4.8-3-7.3-4.5c-3.8-2.2-7.1-4.3-10.2-6.6c-4.6-0.3-10.1-1.9-14.1-6.2c4.2,2,8.4,5.4,12.5,5c-4.1-2.9-9.7-7.3-13.4-11.6
			c-1.3-1.5-3.7-3.1-3.2-5c3.3,4.3,7.1,8.4,11.1,11.4c6.6,4.9,14,10.1,20.1,13.2c2.9,1.5,5.2,3.5,8.1,4.8c1.9,0.9,4.1,1.4,5.5,3
			c0.7-1.9,0.7-4.1,0.7-6.1c0-2,0-4.1-0.4-6.1c-0.5,0.1-1,0.6-1.4,0c-1.6-1.7-3-1.8-4.5-2.7c-1.6-1-2.7-1.3-3.8-2
			c-0.8-0.5-1.3-1.3-2.1-1.8c-1-0.6-2.1-0.7-3-1.2c-1.2-0.7-2-1.7-3.2-2.5c-2.8-1.9-6-4.1-9-6.4c-3.2-2.5-6.5-1.4-9.8-3
			c-1.1-0.5-2.3-1.4-3.6-2.1c-1.2-0.7-2.5-1.4-3.6-2.1c-1.9-1.4-2.8-3.2-5.4-4.3c0.6,0.7,0.9,1.4,0.4,2.1c1.4,1.1,0.7,2.3,1.6,3.4
			c0.7,1,2,0.8,2.1,1.8c-0.5,0.5-1.1,0.4-1.6,0.9c0.2,0.6,1,1.2,1.1,1.8c-0.3,0.4-1.1,0.7-0.4,1.1c1.5,2.4,2.1,5.5,5.2,7.3
			c-0.5,0.9-1.1,0-1.6,0.9C274.5,283.4,274.7,284.9,275.3,285.9z M356.9,232.5c1.4,0.2,3-0.5,4.5-1.3c3-1.5,6.4-3.4,9.1-5.6
			c1.3-1.1,3-2.5,3.4-4.1c-1.1-0.5-2.1,1.3-3.2,0c0.1-1.1,1.4-2.3,2.3-3.4c-0.3-1.1,0-1.6,1.2-2.3c-1.4-0.8,0.8-2-0.4-3.2
			c0-0.7,0.7-1.3,0.9-2c-1.4-1.3-2.9,1.4-4.3,0.4c0.4-1.7,1-3.5,2-5.2c-0.6-1,0.2-1.9,0.7-2.9c-0.7-1.1-0.8-1.9-0.5-3.4
			c-2,0.3-2.5,2.8-4.1,2.3c-0.6-1.4,1.2-2.9,1.8-4.3c-0.6-0.6-1.2-0.7-0.2-2c-1.8,0,0-2.6-1.3-2c-0.6-0.1-1.6,1.8-2.7,2
			c-1.2-1.2-0.1-2.4,0.4-3.6c-1.8-0.5,0.6-2-0.5-3c-0.9-0.2-2.1,1.3-2.1,2.1C359,195.7,355,201,350,205c-1,0.8-1.9,1.1-2.7,2
			c-0.8,0.9-1.2,2-2,3c-7.2,9.6-16.4,18.2-25.5,26.7c0.1,3.6-0.4,7.2,0,10.7c3.1-2.5,5.4-5.6,8.2-7.9c2.2-1.8,4.8-2.9,7.2-4.7
			c4.9-3.6,10.7-8.7,14.1-12.4c3.2-3.4,5.3-7.4,7.5-10.7c1.7-2.6,3.8-5.4,5.2-7.3c1.3-1.7,2.9-3.2,3.9-5c0.9-1.4,0.8-3.4,2.5-4.3
			c-2.3,5.9-7.6,11.7-11.1,17.2c-1.2,1.9-2.4,3.8-3.2,5.7c6-2.6,12.8-11.3,17.3-15.9c-0.9,2.8-3.4,4.6-5.5,6.6
			c-2.4,2.3-4.3,5.2-7,7.3c-1.8,1.4-4.1,2-5.9,3.4c-1.1,0.9-2,2.3-3,3.4c-3.1,3.2-6.5,6.3-10,9.3c-3.8,3.2-8.4,5.5-12.2,8.6
			c-2.3,1.9-6.5,6.6-8.2,8.6c-0.3,5.1-0.4,10.1-0.2,15.2c5.4-6.4,12.1-8.6,17.3-13.1c1.4-1.2,2.6-2.4,3.9-3.6
			c2.6-2.3,5.1-5.2,7.5-7.9c3.1-3.4,6.5-6.1,9.3-9.3c2.3-2.6,4.7-5.5,6.8-8.2c3.2-4.3,6-9.1,9.3-11.1
			C367.8,217.8,363.5,225.8,356.9,232.5z M365.6,229.8c-0.9,0.5-1.9,0.5-2.7,0.9c-1,0.5-1.7,1.5-2.7,2c-2.1,1-4.4,0.8-6.4,2.5
			c-4.7,3.8-8.4,9.6-13.2,14c-1.7,1.6-3.8,3.6-5.7,5c-5.2,3.7-11.8,6.4-15.7,12.5c0,4.2-0.6,8.3,0,12.5c3-2.6,6.2-4.7,9.7-6.8
			c2.5-1.5,4.5-3.3,7-5.2c4.5-3.6,9.8-6.5,14.1-10.6c2.9-2.7,5.3-6.4,8.4-9.5c3.9-3.9,8.3-8.1,11.1-11.5c1.2-1.4,2.5-2.3,3.8-3.4
			c-0.9-1.1-1.8,0.5-2.7-0.2c1-1.5,1.2-2.1,2.7-3.8c0.3-0.7-0.1-1.3,0.2-2c1.7-1.5,0.7-2,0.5-3.4
			C371.3,225.3,368.6,228.2,365.6,229.8z M363.9,246.3c-3,2.3-5.4,5.8-8,5.2c-3.2,3.8-7.2,7.3-11.3,10.6c-2.8,2.3-6.3,4.1-9.1,6.6
			c-3,2.6-5.5,3.5-7.9,5.4c-2.2,1.8-5,2.9-6.6,4.5c-4,3.7-1.3,7.1-1.6,10.9c3.3-2.9,7.5-4.2,11.3-6.3c4.5-2.5,9-5.5,13.2-9
			c1.8-1.5,3-2.1,4.3-3.2c2.3-1.9,4.8-4.5,6.6-7c3.7-5,8.1-11.6,13.4-14.1c-2.6,1.3-4.3,3.9-6.3,6.3c-1.6,1.9-3.8,3.4-4.5,5.6
			c2.6-1,5.1-3,7.7-3.8c-2.2,3.1-6.6,2.9-9.3,5.4c-1.9,1.8-2.7,4.4-5.4,6.4c1.1,0.3,2.2-0.6,3.4-0.9c1.1-0.3,2.3-0.2,3.4-0.9
			c1.4-0.9,2.2-2.8,4.1-3c-1.9,2.2-3.8,3.5-5.7,4.7c-4-0.1-7.8,2.5-11.6,5.6c-3.2,2.6-6.8,4.8-10.2,7c-4,2.6-9,4.4-12.5,6.8
			c-1.1,0.7-1.7,1.5-2.1,2.1c0,1.3,0.2,2.6-0.4,3.9c0.8,2.3-0.9,4.5,0.4,6.8c1.6-1.6,2.9-1.6,4.5-2.3c3.8-1.8,8.1-4.5,11.6-6.6
			c4.5-2.7,8.1-7.5,12.5-11.1c0.8-0.7,1.9-1,2.7-1.6c2.9-2.3,5.1-6.1,7.9-6.8c-6.4,5.9-12.7,11.6-19.1,17c2.4,0.9,5.3-0.3,7.9-1.8
			c0.6-0.4,1.1-1.8,2.1-1.1c-1.7,0.5-2.4,1.9-3.8,2.7c-2.5,1.4-5.5,0.9-7.9,1.4c-6,5.5-12,7.9-18.1,10.6c-1,2.3-1.1,4.7-0.5,7
			c2.4-2.9,4.8-2.8,7-3.4c1.6-0.4,2.7-1.3,4.3-1.4c4.9-3,8.9-6.1,13.6-10.4c0.5,0.5,1.1-0.6,1.6,0.2c-4,1.1-6.2,6.1-9.8,7
			c-2.7,2.2-6,4.3-8.2,5c-2.3,0.7-5.2,0.2-6.8,2.9c4.1-0.4,9.1-1,12.7-3.8c0.5,1.4-1.4,1.5-2.1,1.8c-1,0.5-2.2,1.2-3.4,1.6
			c-2.7,0.8-6.2,0.2-8.6,1.8c-0.1,1.3-0.8,2.5,0.2,3.8c1.9,0.4,3.8-1.3,5.7-1.1c0.5-0.4,0.3-0.8,0.5-1.3c0.9,0.1,1.8,0.2,2.7-0.5
			c0.3-0.4-0.8-0.8-0.2-1.3c1.1-0.3,2.1,0.6,3.2-0.4c0.3-0.4-0.6-0.8,0.2-1.3c1.5-0.1,3.9-0.8,3.9-2.5c0.8,0.3,1.7-0.2,2.5-0.7
			c0.5-0.4-0.9-0.7,0-1.1c1-0.2,2-0.8,3-1.6c0.3-0.8-1.8,0-1.4-1.1c1.1-0.2,2.1-0.2,3.2-1.1c0.3-0.3-0.4-0.6-0.2-0.9
			c0.8-0.3,2.3-0.6,2.5-1.4c0.6-0.4-1.1-0.2-0.5-0.9c0.8-0.6,1.7-0.4,2.5-1.4c-0.2-0.4-1.3-0.2-0.9-0.9c1.3,0,1.4-0.7,0.7-1.4
			c0.8-0.3,1.7-0.4,2.5-1.4c0.5-0.6-1.3-0.1-0.7-0.7c1.4-0.9,4.3-1.5,3.2-3.6c0.9-0.4,2.4-1.6,1.4-2.5c0.4,0,1.8-1.1,1.6-1.6
			c-0.3,0.5-1.5,0.5-1.3-0.2c2.4-0.4,3.3-2.8,3.9-4.7c-0.5-0.8-1.9,0.3-1.8-0.7c2.3-0.8,3-3.1,4.8-4.5c-0.9-0.6-0.1-1.5,1.1-2.5
			c-0.6-1.1-2.1-0.1-2.1-1.1c1.4,0.1,3.2-1.4,4.1-3c-0.2-0.3-0.7-0.6-0.5-0.9c1.8-1.3,1.1-2.5,2.3-3.8c-0.4-0.6-1.6-0.2-1.4-1.1
			c0.5-0.6,1.1-0.4,1.6-1.3c0.2-0.9,0.1-1.8,1.2-2.7c-0.2-0.3-0.6-0.9,0.5-1.6c-1-0.9-1.9,1.1-2.9,0.4c0.5-1.5,2.3-2,3.4-3.4
			c0-1.3,1-2.6,1.8-3.9c-0.5-0.9-1.9-0.1-1.8-1.1c0.8-0.8,1.5-1.1,2.3-1.6c-0.8-0.8,0-1.6,0.9-2.3c-1.4-1.4,2.5-2.7,1.2-4.1
			c0-0.6-1.5,0.9-2.1,0c1-1.4,1.3-2.9,2.5-4.3c-0.2-0.6-0.8-0.6-0.7-1.4c-4.9,5.8-9.7,10.8-15.5,16.7c1.1,0.3,2.5-0.5,3.4-1.3
			c3.2-2.4,6.4-6,9.7-6.8C368.7,244.4,366,244.7,363.9,246.3z"/>
		<path class="st0" d="M273.2,282.7c0.5-0.9,1.1,0,1.6-0.9c-3.1-1.9-3.7-4.9-5.2-7.3c-0.7-0.4,0.1-0.7,0.4-1.1
			c-0.1-0.6-0.9-1.2-1.1-1.8c0.5-0.5,1.1-0.4,1.6-0.9c-0.1-1-1.5-0.8-2.1-1.8c-0.9-1.1-0.2-2.3-1.6-3.4c0.6-0.7,0.3-1.4-0.4-2.1
			c2.6,1.1,3.4,2.8,5.4,4.3c1.1,0.8,2.4,1.5,3.6,2.1c1.2,0.7,2.5,1.6,3.6,2.1c3.4,1.6,6.6,0.5,9.8,3c2.9,2.3,6.1,4.5,9,6.4
			c1.2,0.8,2,1.8,3.2,2.5c0.9,0.5,2.1,0.7,3,1.2c0.9,0.5,1.4,1.3,2.1,1.8c1.1,0.7,2.1,1,3.8,2c1.5,0.9,2.9,0.9,4.5,2.7
			c0.5,0.6,1,0.1,1.4,0c0.4,2,0.4,4.1,0.4,6.1c0,2-0.1,4.1-0.7,6.1c-1.4-1.6-3.6-2.1-5.5-3c-2.8-1.3-5.2-3.3-8.1-4.8
			c-6.1-3.2-13.5-8.3-20.1-13.2c-4.1-3-7.8-7.2-11.1-11.4c-0.4,1.9,1.9,3.5,3.2,5c3.8,4.3,9.3,8.7,13.4,11.6c-4.2,0.4-8.4-3-12.5-5
			c4,4.4,9.5,5.9,14.1,6.2c3.1,2.3,6.4,4.4,10.2,6.6c2.5,1.4,4.9,3.1,7.3,4.5c1.2,0.7,3,1.2,4.5,2c3.8,1.9,5.1,2.8,5.2,6.6
			c0,1.3-0.2,2.7-0.4,3.9c-1.8-2-4.4-2.4-6.4-3.6c-0.3-0.2-0.5-0.7-0.9-0.9c-4.1-1.9-8.9-2.5-12.7-4.8c-0.8-0.5-1.8-1.3-2.5-1.8
			c-1.7-1.1-3.4-2.7-5.4-3.9c-2.7-1.8-5-2.8-7.7-5.9c0.4,2.3,2.6,3.8,4.1,4.8c1.8,1.3,4.1,2.5,6.1,3.9c2,1.4,4,3.2,6.1,4.3
			c2.1,1.1,4.5,1.9,6.6,2.7c3.7,1.4,7.5,2.5,10.6,4.5c1.5,1,2.4,2.1,2.7,3.8c-2.1,1.5-3.6,0.4-6.3-0.5c-1.4-0.5-4.6-1.6-6.1-2.5
			c-2.6-1.6-4.6-4.5-7.3-4.5c1.1,1.3,3.7,2.2,5.4,3.6c-0.3,1.1-1.8-0.4-2.7,0.5c5.6,0.6,11.2,5.4,16.8,5c0.4,1,0.2,2-0.2,3
			c-1.8-0.5-3.6,0.4-5.4,0.4c-1.9-0.1-3.1-1.4-5-1.4c-2.7-2.7-6.6-3.9-10.2-7.7c0.6-1,1.2-0.2,1.8-1.1c-2-1.1-2.9-2.7-5-3.2
			c-0.7-1.9-4.1-3.5-5.6-5.2c-0.7-0.5,0.7-1.1,0.2-1.6c-1.3-0.7-2.5-1.7-3.8-2.3c-0.6-0.7,0-1.3-0.5-2c-1.4-1.3-2.4-2.2-2.9-3.9
			c-0.1-0.2,0.2-1.4-0.4-2.1c-0.7-1-1.9-1.1-2.7-2c-0.4-0.4,0-0.8-0.2-1.3c-0.2-0.4-0.8-0.7-1.1-1.1
			C274.7,284.9,274.5,283.4,273.2,282.7z"/>
		<path class="st0" d="M269.7,218.1c0.9-0.3,1,2.1,1.6,3c0.7,1,2.2,1.9,3.6,3.2c1.6,1.6,2.9,3.6,4.3,4.6c0.6,0.5,1.5,0.7,2.1,1.1
			c1.3,0.8,2.4,2.2,4.1,1.6c8.1,11.6,19.7,21.7,31,30.9c0.2,4.2,0,8.3-0.3,12.5c-6.3-2.9-12.9-8-19.2-13.4c-2.2-1.9-4-4.2-6.1-6.4
			c-2.5-2.6-5.3-4.7-7.7-7.3c-5.6-6.1-9.5-12.7-14-18.9c3.6,7.1,8.1,14.2,14.9,21.3c-2.1,0.6-4.9-0.3-7-1.6c-1.7-1.1-3-3-4.8-4.1
			c-1.6-1-4.6-1.5-6.4-4.3c1-0.4,2.4,0.3,3.2-1.1c0.5-0.9,0.4-1.6-0.9-2.7c0.4-1.4-0.7-2.9-1.4-4.3c0-0.9,0.8-0.3,1.3-0.9
			c-0.1-0.8-1.2-1.6-1.3-2.3c0.6-0.3,1.8-1.2,0.9-2.3c0.8-0.4,1.7,0.4,2.5,0c0-1.4,0.1-2.9-1.1-4.3c1.4-1.3,0.3-2.6,0-3.9
			C269.2,218.2,269.5,218.4,269.7,218.1z"/>
		<path class="st0" d="M352.3,181.2c1.5,0.3,0.3,2,1.4,2.9c2.6-0.6,5.2-4.1,7.3-6.3c0.7,0.7,0,2.2,0.4,2.9c0.3,0.5,1.1-0.1,1.1,0.7
			c-0.5,1.1-0.1,1.6,0.5,2.3c-0.5,1.7-0.7,3.5-0.2,5.2c1,0.8,1.9-2.3,2.9-1.1c-4.7,4.9-10.6,12.3-17,17c2.9-6.4,5.7-12.9,8.9-19.3
			c-1,0.2-1.6,1.6-2,2.3c-0.5,0.9-0.7,2-1.1,2.9c-0.8,2-2,3.8-2.9,5.7c-1.7,3.8-3.2,8-5.9,11.6c-5.2,7.1-11.3,14-18.4,20.2
			c-2.5,2.2-5,3.9-7.1,6.8c-1.2-0.5-0.5-2.1-0.5-3c0-3-0.2-6.7,0.2-9.8c10.4-7.4,20-17.9,25.4-28.3c1-2,1.8-4.1,2.9-6.1
			C349.4,185.5,350.5,182.8,352.3,181.2z M358.6,184.2c1-1.5,2.3-3,2-4.5C360.1,181.2,358.7,182.7,358.6,184.2z"/>
	</g>
</g>
</svg>
